<?xml version="1.0" encoding="UTF-8" standalone="no"?>
<svg
   xmlns:dc="http://purl.org/dc/elements/1.1/"
   xmlns:cc="http://creativecommons.org/ns#"
   xmlns:rdf="http://www.w3.org/1999/02/22-rdf-syntax-ns#"
   xmlns:svg="http://www.w3.org/2000/svg"
   xmlns="http://www.w3.org/2000/svg"
   xmlns:sodipodi="http://sodipodi.sourceforge.net/DTD/sodipodi-0.dtd"
   xmlns:inkscape="http://www.inkscape.org/namespaces/inkscape"
   width="24"
   height="24"
   viewBox="0 0 24 24"
   version="1.1"
   id="svg101"
   sodipodi:docname="pano.svg"
   inkscape:version="0.92.5 (2060ec1f9f, 2020-04-08)">
  <metadata
     id="metadata107">
    <rdf:RDF>
      <cc:Work
         rdf:about="">
        <dc:format>image/svg+xml</dc:format>
        <dc:type
           rdf:resource="http://purl.org/dc/dcmitype/StillImage" />
      </cc:Work>
    </rdf:RDF>
  </metadata>
  <defs
     id="defs105" />
  <sodipodi:namedview
     pagecolor="#ffffff"
     bordercolor="#666666"
     borderopacity="1"
     objecttolerance="10"
     gridtolerance="10"
     guidetolerance="10"
     inkscape:pageopacity="0"
     inkscape:pageshadow="2"
     inkscape:window-width="1848"
     inkscape:window-height="1016"
     id="namedview103"
     showgrid="false"
     inkscape:zoom="34.916667"
     inkscape:cx="11.670644"
     inkscape:cy="12"
     inkscape:window-x="72"
     inkscape:window-y="27"
     inkscape:window-maximized="1"
     inkscape:current-layer="svg101" />
  <path
     d="M3,6.25768926 L3,17.7520684 C8.78116324,15.4638469 15.2188368,15.4638469 21,17.7520684 L21,6.25768926 C15.2325478,8.61623308 8.76745224,8.61623308 3,6.25768926 Z M2.70404054,5.04352715 C8.61931991,7.68762044 15.3806801,7.68762044 21.2959595,5.04352715 C21.6267089,4.89568419 22,5.13771178 22,5.5 L22,18.5 C22,18.8595723 21.6318209,19.1015941 21.3017279,18.9590078 C15.3656403,16.3948671 8.63435968,16.3948671 2.69827211,18.9590078 C2.36817912,19.1015941 2,18.8595723 2,18.5 L2,5.5 C2,5.13771178 2.37329107,4.89568419 2.70404054,5.04352715 Z"
     id="path99"
     style="stroke-width:1.7;stroke-miterlimit:4;stroke-dasharray:none;stroke:#000000;stroke-opacity:1" />
</svg>
