<?xml version="1.0" encoding="UTF-8" standalone="no"?>
<svg
   xmlns:dc="http://purl.org/dc/elements/1.1/"
   xmlns:cc="http://creativecommons.org/ns#"
   xmlns:rdf="http://www.w3.org/1999/02/22-rdf-syntax-ns#"
   xmlns:svg="http://www.w3.org/2000/svg"
   xmlns="http://www.w3.org/2000/svg"
   xmlns:sodipodi="http://sodipodi.sourceforge.net/DTD/sodipodi-0.dtd"
   xmlns:inkscape="http://www.inkscape.org/namespaces/inkscape"
   xml:space="preserve"
   width="20.025669in"
   height="20.025669in"
   style="clip-rule:evenodd;fill-rule:evenodd;image-rendering:optimizeQuality;shape-rendering:geometricPrecision;text-rendering:geometricPrecision"
   viewBox="0 3.7 17.379627 17.37957"
   version="1.1"
   id="svg11"
   sodipodi:docname="app.svg"
   inkscape:version="0.92.5 (2060ec1f9f, 2020-04-08)"><metadata
   id="metadata15"><rdf:RDF><cc:Work
       rdf:about=""><dc:format>image/svg+xml</dc:format><dc:type
         rdf:resource="http://purl.org/dc/dcmitype/StillImage" /><dc:title></dc:title></cc:Work></rdf:RDF></metadata><sodipodi:namedview
   pagecolor="#ffffff"
   bordercolor="#666666"
   borderopacity="1"
   objecttolerance="10"
   gridtolerance="10"
   guidetolerance="10"
   inkscape:pageopacity="0"
   inkscape:pageshadow="2"
   inkscape:window-width="1848"
   inkscape:window-height="1016"
   id="namedview13"
   showgrid="false"
   inkscape:zoom="0.22995065"
   inkscape:cx="-380.22459"
   inkscape:cy="594.3608"
   inkscape:window-x="72"
   inkscape:window-y="27"
   inkscape:window-maximized="1"
   inkscape:current-layer="Layer_x0020_1"
   inkscape:pagecheckerboard="true"
   fit-margin-top="0"
   fit-margin-left="0"
   fit-margin-right="0"
   fit-margin-bottom="0"
   viewbox-y="3.7" />
 <defs
   id="defs4"><marker
   inkscape:stockid="Arrow1Lend"
   orient="auto"
   refY="0"
   refX="0"
   id="Arrow1Lend"
   style="overflow:visible"
   inkscape:isstock="true"><path
     id="path4538"
     d="M 0,0 5,-5 -12.5,0 5,5 Z"
     style="fill:#ffffff;fill-opacity:1;fill-rule:evenodd;stroke:#ffffff;stroke-width:1.00000003pt;stroke-opacity:1"
     transform="matrix(-0.8,0,0,-0.8,-10,0)"
     inkscape:connector-curvature="0" /></marker>
  <style
   type="text/css"
   id="style2">
   <![CDATA[
    .fil0 {fill:#1F1A17}
    .fil1 {fill:#1F1A17;fill-rule:nonzero}
   ]]>
  </style>
 </defs>
 <g
   id="Layer_x0020_1"
   transform="translate(0.29851353,7.7894462)">
  <metadata
   id="CorelCorpID_0Corel-Layer" />
  <path
   id="svg_3"
   class="fil0"
   d="M 8.40487,8.31453 C 8.722171,8.338335 9.06704,8.398986 9.44563,8.505639 12.34036,7.970147 14.07094,8.08856 16.45728,8.851105 L 16.776433,8.585254 15.035583,1.676464 14.681958,1.618457 14.545761,1.087394 C 14.525171,1.0066378 14.455913,0.9512649 14.377326,0.9444929 14.238645,0.8184509 14.072527,0.7041479 13.885385,0.6026109 13.175124,0.2172779 12.133095,-0.0029761 11.131205,-9.9999999e-8 10.116885,0.00302377 9.133955,0.2360329 8.556585,0.7588649 8.519482,0.7924555 8.484019,0.8272215 8.450346,0.8630329 8.434444,0.8587179 8.417801,0.8563569 8.400532,0.8563569 c -0.01474,0 -0.028968,0.001753 -0.042754,0.0049 C 8.32457,0.8260502 8.289667,0.7918924 8.253169,0.7588379 7.675798,0.2360329 6.692909,0.0030239 5.678599,2.69e-5 c -1.00186,-0.00300337 -2.04387,0.217251 -2.75413,0.602564 -0.187186,0.101558 -0.353229,0.21586 -0.491938,0.341902 -0.078566,0.00682 -0.147893,0.0621653 -0.168483,0.142901 l -0.136197,0.531063 -0.353649,0.058007 -1.7742,7.04126 0.173762,0.191286 c 1.94914,-0.639916 3.82845,-0.868538 5.86221,-0.612746 0.417134,0.05252 0.857208,0.122263 1.32818,0.209375 0.378616,-0.106652 0.723419,-0.167304 1.04072,-0.191109 z M 15.80378,7.05727 C 15.79888,7.0561 15.79398,7.05476 15.78911,7.05317 L 15.78571,7.05205 C 15.471786,6.94935 15.158431,6.858433 14.846856,6.779358 14.810196,6.770058 14.773456,6.760842 14.736845,6.751856 14.387098,6.666135 14.036373,6.594365 13.686795,6.53685 12.124905,6.279889 10.599215,6.311119 9.2817253,6.65188 9.0915223,6.701092 8.9055963,6.756677 8.7245983,6.818849 8.6749213,6.835875 8.6230853,6.8313 8.5792343,6.810129 c -0.02716,0.072276 -0.096952,0.12375 -0.178733,0.12375 -0.077637,0 -0.148539,-0.048047 -0.177318,-0.120364 -0.037838,0.016319 -0.080978,0.020627 -0.123295,0.00977 -0.18463,-0.047702 -0.36556,-0.117555 -0.551161,-0.16607 -1.32216,-0.345801 -2.85567,-0.378664 -4.42572,-0.120364 -0.349577,0.057515 -0.700301,0.129285 -1.05005,0.215006 -0.123066,0.030157 -0.246406,0.062145 -0.370033,0.096029 -0.225656,0.061878 -0.452139,0.129989 -0.67882,0.204171 l -0.00343,0.00112 c -0.00487,0.00159 -0.00972,0.00292 -0.014638,0.0041 L 0.66008532,8.521597 C 2.3555818,7.6704375 4.9749318,7.7442195 6.5610218,7.9215385 c 0.308165,0.034445 0.573135,0.076277 0.775061,0.123046 0.030232,-0.016975 0.066047,-0.034397 0.108535,-0.052257 0.274079,-0.115153 0.593396,-0.18777 0.960272,-0.176758 0.366876,-0.011012 0.6862,0.061605 0.960279,0.176758 0.042508,0.01786 0.078296,0.035282 0.108525,0.052284 1.3535602,-0.313601 5.5296402,-0.407488 6.6760102,0.476979 l -0.345917,-1.46432 z M 8.59137,6.459917 c 0.00295,-0.00117 0.00594,-0.00231 0.00899,-0.00337 1.49417,-0.513156 3.29911,-0.601101 5.14783,-0.296951 0.357688,0.058854 0.717887,0.132613 1.0785,0.220995 0.246194,0.060341 0.491165,0.127115 0.73409,0.200054 L 14.21034,1.315565 C 14.1739,1.276026 14.13343,1.237388 14.089491,1.199729 13.981059,1.106792 13.850728,1.019701 13.70274,0.93941005 13.045316,0.58274005 12.07222,0.37891805 11.13121,0.38171605 10.202673,0.38447005 9.31457,0.58719905 8.81257,1.041774 8.74095,1.106618 8.677097,1.177343 8.622408,1.253886 8.631358,1.30387 8.619858,1.355317 8.591397,1.396561 l -2.05e-5,5.06335 z m -0.381739,-0.00329 -2.187e-4,-7.51e-5 c -1.49417,-0.513156 -3.29908,-0.601128 -5.1478,-0.296951 -0.357688,0.058854 -0.717887,0.132613 -1.0785,0.220995 -0.246215,0.060341 -0.491063,0.12704 -0.734042,0.199979 l 1.35035,-5.26488 c 0.036659,-0.039833 0.077199,-0.078761 0.121457,-0.116663 0.108313,-0.092695 0.238541,-0.179515 0.386246,-0.25964305 0.657396,-0.356643 1.63049,-0.560465 2.57147,-0.557639 0.928516,0.002727 1.81656,0.205435 2.31859,0.66001005 0.071664,0.064892 0.135445,0.135589 0.190135,0.212201 -0.00794,0.044511 2.939e-4,0.090084 0.022339,0.128673 l -2.73e-5,5.07399 z"
   inkscape:connector-curvature="0"
   style="opacity:1;fill:#ffffff;fill-opacity:1;stroke:#ffffff;stroke-width:0.54241717;stroke-miterlimit:4;stroke-dasharray:none;stroke-opacity:1" />
  <path
   class="fil1"
   d="m 8.18779,6.62307 -0.0048,-0.175033 0.350065,-0.0096 0.0048,0.175033 C 8.557833,7.312893 7.878603,7.479766 7.089415,7.6736 6.258032,7.877768 5.283605,8.117135 5.115995,9.10509 L 5.087178,9.278076 4.741206,9.220438 4.770023,9.047452 c 0.206262,-1.21585 1.30131,-1.48486 2.23564,-1.71432 0.641713,-0.157614 1.19405,-0.293329 1.18214,-0.71007 z"
   id="path8"
   inkscape:connector-curvature="0"
   style="fill:#ffffff;fill-opacity:1;fill-rule:nonzero;stroke:#ffffff;stroke-width:0.54241717;stroke-linecap:round;stroke-miterlimit:4;stroke-dasharray:none;stroke-opacity:1" />
 </g>
<path
   style="fill:none;fill-opacity:1;stroke:none;stroke-width:0.257507;stroke-miterlimit:4;stroke-dasharray:none;stroke-opacity:1"
   d="m 15.742283,14.332469 c -0.169126,-0.05245 -0.666626,-0.179802 -0.943537,-0.24153 -1.999041,-0.445626 -4.031093,-0.423731 -5.6103152,0.06045 -0.125301,0.03842 -0.2433659,0.07426 -0.2623665,0.07966 -0.032854,0.0093 -0.034229,-0.114796 -0.028062,-2.533191 0.00357,-1.398651 0.01351,-2.5719409 0.022097,-2.6073114 C 8.9286866,9.055173 8.9740043,8.9836433 9.0208059,8.9315887 9.3323649,8.58506 9.898741,8.3413959 10.659796,8.2264689 c 0.323321,-0.048825 1.285925,-0.048388 1.622851,7.371e-4 0.985395,0.1436726 1.746668,0.428622 2.133447,0.798563 l 0.09386,0.089771 0.663357,2.594727 c 0.364846,1.4271 0.667392,2.605784 0.672326,2.619298 0.01028,0.02817 -0.01921,0.029 -0.103352,0.0029 z m -3.936827,-1.393873 c 0.846562,-0.167322 1.204626,-0.214454 1.745069,-0.229707 0.416511,-0.01175 0.759792,0.0083 1.135894,0.0663 0.111202,0.01716 0.206178,0.0272 0.211057,0.02232 0.01159,-0.01159 -0.460566,-2.184093 -0.478309,-2.200825 -0.03229,-0.03045 -0.642794,-0.08043 -1.099087,-0.08998 -0.434813,-0.0091 -0.496934,-0.0143 -0.504918,-0.04226 -0.005,-0.01753 -0.08202,-0.372439 -0.171145,-0.7886761 -0.08912,-0.4162374 -0.164434,-0.7600409 -0.167357,-0.7640078 -0.0029,-0.00397 -0.162766,-0.024969 -0.355205,-0.046671 -0.249617,-0.028151 -0.485092,-0.039777 -0.821659,-0.040569 -0.505944,-0.00119 -0.68654,0.017359 -1.126449,0.1157038 -0.2596063,0.058037 -0.8448395,0.2311694 -0.8679903,0.2567825 -0.013734,0.015195 0.033192,2.1098366 0.048425,2.1615476 0.00431,0.01463 0.1462683,-0.0059 0.4331447,-0.06278 0.8127526,-0.161027 1.4272726,-0.250877 1.4608276,-0.21359 0.0093,0.01029 0.05852,0.41235 0.109452,0.893455 0.105863,0.999935 0.108727,1.022166 0.1317,1.022166 0.0093,0 0.151798,-0.02664 0.31655,-0.05921 z M 9.6574358,12.48376 c 0.4459792,-0.178832 1.0243202,-0.251123 1.3863352,-0.173287 0.07863,0.0169 0.107584,0.0025 0.108297,-0.05397 0.0011,-0.08373 -0.632198,-0.101968 -0.978097,-0.02817 -0.2453319,0.05234 -0.4614554,0.119446 -0.6818324,0.211697 -0.15957,0.0668 -0.1648773,0.07107 -0.1443581,0.116101 0.020735,0.04551 0.023193,0.04595 0.092264,0.01655 0.03903,-0.01661 0.1368556,-0.05663 0.217391,-0.08892 z m -0.019656,-0.334169 c 0.4459782,-0.178833 1.0243192,-0.251123 1.3863342,-0.173287 0.07863,0.0169 0.107583,0.0025 0.108297,-0.05397 0.0011,-0.08373 -0.632199,-0.101969 -0.978096,-0.02817 -0.2453328,0.05234 -0.4614563,0.119446 -0.6818333,0.211697 -0.1595698,0.0668 -0.164877,0.07107 -0.1443578,0.116101 0.020734,0.04551 0.023193,0.04595 0.092265,0.01655 0.039029,-0.01661 0.1368547,-0.05663 0.217391,-0.08892 z M 9.4902194,11.896482 c 0.4842937,-0.197808 1.0139866,-0.277846 1.4080756,-0.212764 0.07525,0.01243 0.140239,0.01906 0.144431,0.01474 0.0042,-0.0043 0.01067,-0.02546 0.0144,-0.04699 0.01119,-0.06455 -0.169342,-0.09148 -0.543613,-0.08108 -0.244212,0.0068 -0.360648,0.0197 -0.5209115,0.05777 -0.2331816,0.0554 -0.6355513,0.197051 -0.7438473,0.261873 -0.011926,0.0071 0.018714,0.08561 0.033427,0.08561 0.00783,0 0.1014476,-0.03562 0.2080354,-0.07916 z"
   id="path4637"
   inkscape:connector-curvature="0" /><path
   style="fill:none;fill-opacity:1;stroke:none;stroke-width:0.257507;stroke-miterlimit:4;stroke-dasharray:none;stroke-opacity:1"
   d="m 1.5670506,14.309908 c 0.00654,-0.02433 0.3086657,-1.20301 0.6713871,-2.619298 L 2.8979313,9.1155397 3.0003748,9.0187313 C 3.3867275,8.6536309 4.1653675,8.3628653 5.1176631,8.2280774 5.4727,8.1778255 6.4297642,8.1771212 6.7491959,8.2268768 c 0.275686,0.042942 0.5815065,0.1145473 0.7830691,0.18335 0.3453302,0.1178772 0.7318736,0.3610469 0.8887408,0.5590959 l 0.067837,0.085646 0.00534,2.5906133 c 0.00293,1.424837 0.00227,2.590612 -0.00147,2.590612 -0.00374,0 -0.072487,-0.02235 -0.1527637,-0.04966 C 8.2596671,14.159224 8.039188,14.098044 7.8499892,14.050599 6.3755033,13.680818 4.6413194,13.6776 2.847277,14.041299 c -0.3860387,0.07826 -0.8807375,0.198691 -1.127435,0.274458 -0.157722,0.04844 -0.167295,0.04807 -0.1527914,-0.0059 z m 1.8306231,-1.833843 c 0.4739314,-0.100969 0.7425029,-0.130356 1.2875349,-0.140883 0.4094149,-0.0079 0.5819185,-0.0031 0.8059379,0.02251 0.2398397,0.02741 0.6679959,0.107501 0.756769,0.141566 0.014618,0.0056 0.033579,-0.01558 0.046114,-0.05154 0.016102,-0.04619 0.015476,-0.06302 -0.00257,-0.06909 -0.5109852,-0.171916 -1.520839,-0.233187 -2.2745896,-0.138007 -0.3831887,0.04839 -0.9126921,0.152362 -0.9495395,0.186454 -0.00871,0.0081 -0.00979,0.03872 -0.00241,0.06813 0.011596,0.0462 0.020446,0.05168 0.064974,0.04021 0.028352,-0.0073 0.1488512,-0.03401 0.2677762,-0.05935 z m 0.058971,-0.334169 c 0.4739315,-0.100969 0.742503,-0.130356 1.287535,-0.140883 0.4094149,-0.0079 0.5819184,-0.0031 0.8059379,0.02251 0.2398396,0.02741 0.6679959,0.1075 0.756769,0.141566 0.014618,0.0056 0.03358,-0.01558 0.046114,-0.05154 0.016102,-0.04619 0.015476,-0.06302 -0.00257,-0.06909 -0.5109853,-0.171917 -1.520839,-0.233188 -2.2745896,-0.138008 -0.3831887,0.04839 -0.9126922,0.152362 -0.9495395,0.186453 -0.00871,0.0081 -0.00979,0.03872 -0.00241,0.06813 0.011596,0.0462 0.020446,0.05168 0.064973,0.04021 0.028352,-0.0073 0.1488512,-0.03401 0.2677762,-0.05935 z m 0.1277707,-0.339093 c 0.5231299,-0.110245 0.7546071,-0.131952 1.3956486,-0.130882 0.6130582,0.001 0.9092553,0.0303 1.2774782,0.126249 0.1535186,0.04 0.1643629,0.03808 0.1858137,-0.03299 0.011712,-0.0388 0.00211,-0.04652 -0.091161,-0.07331 -0.61984,-0.177983 -1.5520187,-0.213521 -2.3854138,-0.09094 -0.2781426,0.04091 -0.7366359,0.136303 -0.7618515,0.158509 -0.00871,0.0077 -0.00976,0.03814 -0.00233,0.06772 0.010517,0.0419 0.022698,0.05179 0.055145,0.04475 0.022905,-0.005 0.1699081,-0.03607 0.3266729,-0.06911 z M 3.3813588,11.24037 c 1.057541,-0.304372 2.1847385,-0.298529 3.1967146,0.01657 0.072171,0.02247 0.096115,0.02375 0.1022198,0.0054 0.00438,-0.01314 0.057415,-0.486964 0.117844,-1.052937 0.0839,-0.7857919 0.1045182,-1.0354924 0.087224,-1.0563308 C 6.8480949,9.1082228 6.4369304,8.916084 6.2611439,8.8614264 5.8873916,8.7452152 5.373455,8.7184294 4.8916073,8.7900476 4.4226853,8.8597447 3.5179933,9.1126841 3.4981938,9.1796268 3.485189,9.2235962 3.1323039,11.25325 3.1323039,11.284079 c 0,0.03004 -0.01841,0.03327 0.2490549,-0.04371 z"
   id="path4639"
   inkscape:connector-curvature="0" /><path
   style="fill:none;fill-opacity:1;stroke:none;stroke-width:0.257507;stroke-miterlimit:4;stroke-dasharray:none;stroke-opacity:1"
   d="m 0.97003147,16.289914 c 0,-0.01131 0.33765253,-1.434432 0.34088883,-1.436763 0.010694,-0.0077 0.3509869,-0.113332 0.5240202,-0.162659 1.2518965,-0.356884 2.3983339,-0.521891 3.616892,-0.520579 0.8383881,9.03e-4 1.5136337,0.07251 2.1917579,0.232413 0.2352036,0.05546 0.737765,0.204571 0.7620373,0.226094 0.03029,0.02686 -0.137134,0.163646 -0.2902688,0.237153 -0.1699485,0.08158 -0.3874097,0.148376 -0.8943945,0.274734 -0.5852258,0.145858 -0.9094841,0.254952 -1.1892497,0.400112 l -0.1572562,0.0816 -0.3243409,-0.01592 c -0.4393062,-0.02157 -1.465549,-0.0021 -1.8870741,0.03573 -1.0233105,0.09193 -1.8341793,0.276777 -2.5013561,0.570225 -0.1054107,0.04636 -0.19165593,0.0814 -0.19165593,0.07786 z"
   id="path4641"
   inkscape:connector-curvature="0" /><path
   style="fill:none;fill-opacity:1;stroke:none;stroke-width:0.257507;stroke-miterlimit:4;stroke-dasharray:none;stroke-opacity:1"
   d="m 16.36148,16.246862 c -0.100502,-0.07185 -0.356174,-0.187557 -0.570054,-0.257978 -0.482278,-0.158791 -1.085791,-0.262721 -1.965702,-0.338511 -0.398288,-0.03431 -1.782862,-0.04644 -2.291125,-0.02008 -0.683108,0.03543 -1.347361,0.106213 -1.6652706,0.177458 -0.078878,0.01768 -0.1028685,0.01412 -0.2029102,-0.03013 -0.5343849,-0.23633 -1.3866178,-0.23708 -1.9188824,-0.0017 l -0.10964,0.04849 -0.272351,-0.04626 c -0.1497931,-0.02543 -0.3774838,-0.0572 -0.5059795,-0.0706 l -0.2336284,-0.02435 0.1058578,-0.03646 c 0.058222,-0.02005 0.3579592,-0.101834 0.666083,-0.181738 0.3081238,-0.0799 0.6130216,-0.1637 0.6775507,-0.186212 0.3056479,-0.106634 0.5609102,-0.280083 0.6609973,-0.449142 0.1132508,-0.191294 0.1412772,-0.222845 0.187619,-0.211214 0.025193,0.0063 0.1247867,-0.01423 0.2274349,-0.04694 0.5959468,-0.189879 1.2167144,-0.309304 1.9615744,-0.377374 0.343346,-0.03138 1.363829,-0.03161 1.729818,-3.92e-4 1.112455,0.09488 2.148464,0.300966 3.185635,0.633683 l 0.07,0.02245 0.169554,0.719848 c 0.09326,0.395917 0.167906,0.721306 0.165889,0.723087 -0.002,0.0018 -0.03463,-0.0189 -0.07247,-0.04595 z"
   id="path4643"
   inkscape:connector-curvature="0" /></svg>