<?xml version="1.0" encoding="UTF-8" standalone="no"?>
<svg
   xmlns:dc="http://purl.org/dc/elements/1.1/"
   xmlns:cc="http://creativecommons.org/ns#"
   xmlns:rdf="http://www.w3.org/1999/02/22-rdf-syntax-ns#"
   xmlns:svg="http://www.w3.org/2000/svg"
   xmlns="http://www.w3.org/2000/svg"
   xmlns:sodipodi="http://sodipodi.sourceforge.net/DTD/sodipodi-0.dtd"
   xmlns:inkscape="http://www.inkscape.org/namespaces/inkscape"
   xml:space="preserve"
   width="20.025665in"
   height="11.362802in"
   style="clip-rule:evenodd;fill-rule:evenodd;image-rendering:optimizeQuality;shape-rendering:geometricPrecision;text-rendering:geometricPrecision"
   viewBox="0 0 17.379624 9.8613735"
   version="1.1"
   id="svg11"
   sodipodi:docname="icon.svg"
   inkscape:version="0.92.3 (2405546, 2018-03-11)"><metadata
   id="metadata15"><rdf:RDF><cc:Work
       rdf:about=""><dc:format>image/svg+xml</dc:format><dc:type
         rdf:resource="http://purl.org/dc/dcmitype/StillImage" /><dc:title /></cc:Work></rdf:RDF></metadata><sodipodi:namedview
   pagecolor="#ffffff"
   bordercolor="#666666"
   borderopacity="1"
   objecttolerance="10"
   gridtolerance="10"
   guidetolerance="10"
   inkscape:pageopacity="0"
   inkscape:pageshadow="2"
   inkscape:window-width="1853"
   inkscape:window-height="1025"
   id="namedview13"
   showgrid="false"
   inkscape:zoom="0.4599013"
   inkscape:cx="776.20987"
   inkscape:cy="534.27435"
   inkscape:window-x="67"
   inkscape:window-y="27"
   inkscape:window-maximized="1"
   inkscape:current-layer="Layer_x0020_1"
   inkscape:pagecheckerboard="true"
   fit-margin-top="0"
   fit-margin-left="0"
   fit-margin-right="0"
   fit-margin-bottom="0" />
 <defs
   id="defs4"><marker
   inkscape:stockid="Arrow1Lend"
   orient="auto"
   refY="0"
   refX="0"
   id="Arrow1Lend"
   style="overflow:visible"
   inkscape:isstock="true"><path
     id="path4538"
     d="M 0,0 5,-5 -12.5,0 5,5 Z"
     style="fill:#ffffff;fill-opacity:1;fill-rule:evenodd;stroke:#ffffff;stroke-width:1.00000003pt;stroke-opacity:1"
     transform="matrix(-0.8,0,0,-0.8,-10,0)"
     inkscape:connector-curvature="0" /></marker>
  <style
   type="text/css"
   id="style2">
   <![CDATA[
    .fil0 {fill:#1F1A17}
    .fil1 {fill:#1F1A17;fill-rule:nonzero}
   ]]>
  </style>
 </defs>
 <g
   id="Layer_x0020_1"
   transform="translate(0.29851353,0.27122441)">
  <metadata
   id="CorelCorpID_0Corel-Layer" />
  <path
   id="svg_3"
   class="fil0"
   d="M 8.40487,8.31453 C 8.722171,8.338335 9.06704,8.398986 9.44563,8.505639 12.34036,7.970147 14.07094,8.08856 16.45728,8.851105 L 16.776433,8.585254 15.035583,1.676464 14.681958,1.618457 14.545761,1.087394 C 14.525171,1.0066378 14.455913,0.9512649 14.377326,0.9444929 14.238645,0.8184509 14.072527,0.7041479 13.885385,0.6026109 13.175124,0.2172779 12.133095,-0.0029761 11.131205,-9.9999999e-8 10.116885,0.00302377 9.133955,0.2360329 8.556585,0.7588649 8.519482,0.7924555 8.484019,0.8272215 8.450346,0.8630329 8.434444,0.8587179 8.417801,0.8563569 8.400532,0.8563569 c -0.01474,0 -0.028968,0.001753 -0.042754,0.0049 C 8.32457,0.8260502 8.289667,0.7918924 8.253169,0.7588379 7.675798,0.2360329 6.692909,0.0030239 5.678599,2.69e-5 c -1.00186,-0.00300337 -2.04387,0.217251 -2.75413,0.602564 -0.187186,0.101558 -0.353229,0.21586 -0.491938,0.341902 -0.078566,0.00682 -0.147893,0.0621653 -0.168483,0.142901 l -0.136197,0.531063 -0.353649,0.058007 -1.7742,7.04126 0.173762,0.191286 c 1.94914,-0.639916 3.82845,-0.868538 5.86221,-0.612746 0.417134,0.05252 0.857208,0.122263 1.32818,0.209375 0.378616,-0.106652 0.723419,-0.167304 1.04072,-0.191109 z M 15.80378,7.05727 C 15.79888,7.0561 15.79398,7.05476 15.78911,7.05317 L 15.78571,7.05205 C 15.471786,6.94935 15.158431,6.858433 14.846856,6.779358 14.810196,6.770058 14.773456,6.760842 14.736845,6.751856 14.387098,6.666135 14.036373,6.594365 13.686795,6.53685 12.124905,6.279889 10.599215,6.311119 9.2817253,6.65188 9.0915223,6.701092 8.9055963,6.756677 8.7245983,6.818849 8.6749213,6.835875 8.6230853,6.8313 8.5792343,6.810129 c -0.02716,0.072276 -0.096952,0.12375 -0.178733,0.12375 -0.077637,0 -0.148539,-0.048047 -0.177318,-0.120364 -0.037838,0.016319 -0.080978,0.020627 -0.123295,0.00977 -0.18463,-0.047702 -0.36556,-0.117555 -0.551161,-0.16607 -1.32216,-0.345801 -2.85567,-0.378664 -4.42572,-0.120364 -0.349577,0.057515 -0.700301,0.129285 -1.05005,0.215006 -0.123066,0.030157 -0.246406,0.062145 -0.370033,0.096029 -0.225656,0.061878 -0.452139,0.129989 -0.67882,0.204171 l -0.00343,0.00112 c -0.00487,0.00159 -0.00972,0.00292 -0.014638,0.0041 L 0.66008532,8.521597 C 2.3555818,7.6704375 4.9749318,7.7442195 6.5610218,7.9215385 c 0.308165,0.034445 0.573135,0.076277 0.775061,0.123046 0.030232,-0.016975 0.066047,-0.034397 0.108535,-0.052257 0.274079,-0.115153 0.593396,-0.18777 0.960272,-0.176758 0.366876,-0.011012 0.6862,0.061605 0.960279,0.176758 0.042508,0.01786 0.078296,0.035282 0.108525,0.052284 1.3535602,-0.313601 5.5296402,-0.407488 6.6760102,0.476979 l -0.345917,-1.46432 z M 8.59137,6.459917 c 0.00295,-0.00117 0.00594,-0.00231 0.00899,-0.00337 1.49417,-0.513156 3.29911,-0.601101 5.14783,-0.296951 0.357688,0.058854 0.717887,0.132613 1.0785,0.220995 0.246194,0.060341 0.491165,0.127115 0.73409,0.200054 L 14.21034,1.315565 C 14.1739,1.276026 14.13343,1.237388 14.089491,1.199729 13.981059,1.106792 13.850728,1.019701 13.70274,0.93941005 13.045316,0.58274005 12.07222,0.37891805 11.13121,0.38171605 10.202673,0.38447005 9.31457,0.58719905 8.81257,1.041774 8.74095,1.106618 8.677097,1.177343 8.622408,1.253886 8.631358,1.30387 8.619858,1.355317 8.591397,1.396561 l -2.05e-5,5.06335 z m -0.381739,-0.00329 -2.187e-4,-7.51e-5 c -1.49417,-0.513156 -3.29908,-0.601128 -5.1478,-0.296951 -0.357688,0.058854 -0.717887,0.132613 -1.0785,0.220995 -0.246215,0.060341 -0.491063,0.12704 -0.734042,0.199979 l 1.35035,-5.26488 c 0.036659,-0.039833 0.077199,-0.078761 0.121457,-0.116663 0.108313,-0.092695 0.238541,-0.179515 0.386246,-0.25964305 0.657396,-0.356643 1.63049,-0.560465 2.57147,-0.557639 0.928516,0.002727 1.81656,0.205435 2.31859,0.66001005 0.071664,0.064892 0.135445,0.135589 0.190135,0.212201 -0.00794,0.044511 2.939e-4,0.090084 0.022339,0.128673 l -2.73e-5,5.07399 z"
   inkscape:connector-curvature="0"
   style="opacity:1;fill:#000000;fill-opacity:1;stroke:#000000;stroke-width:0.54241717;stroke-miterlimit:4;stroke-dasharray:none;stroke-opacity:1" />
  <path
   class="fil1"
   d="m 8.18779,6.62307 -0.0048,-0.175033 0.350065,-0.0096 0.0048,0.175033 C 8.557833,7.312893 7.878603,7.479766 7.089415,7.6736 6.258032,7.877768 5.283605,8.117135 5.115995,9.10509 L 5.087178,9.278076 4.741206,9.220438 4.770023,9.047452 c 0.206262,-1.21585 1.30131,-1.48486 2.23564,-1.71432 0.641713,-0.157614 1.19405,-0.293329 1.18214,-0.71007 z"
   id="path8"
   inkscape:connector-curvature="0"
   style="fill:#ffffff;fill-opacity:1;fill-rule:nonzero;stroke:#000000;stroke-width:0.54241717;stroke-linecap:round;stroke-miterlimit:4;stroke-dasharray:none;stroke-opacity:1" />
 </g>
<path
   style="fill:none;fill-opacity:1;stroke:none;stroke-width:0.257507;stroke-miterlimit:4;stroke-dasharray:none;stroke-opacity:1"
   d="M 15.742283,6.8142471 C 15.573157,6.7617974 15.075657,6.6344455 14.798746,6.5727167 12.799705,6.1270914 10.767653,6.148986 9.1884308,6.6331661 9.0631298,6.6715825 8.9450649,6.7074287 8.9260643,6.7128241 8.8932104,6.7221533 8.8918355,6.5980279 8.8980025,4.179633 8.9015692,2.7809824 8.911513,1.6076923 8.9200998,1.5723218 8.9286866,1.5369512 8.9740043,1.4654215 9.0208059,1.4133669 9.3323649,1.0668382 9.898741,0.82317405 10.659796,0.70824703 c 0.323321,-0.0488247 1.285925,-0.0483875 1.622851,7.3714e-4 0.985395,0.14367256 1.746668,0.42862203 2.133447,0.79856303 l 0.09386,0.089771 0.663357,2.5947268 c 0.364846,1.4270999 0.667392,2.6057841 0.672326,2.6192982 0.01028,0.02817 -0.01921,0.028998 -0.103352,0.0029 z M 11.805456,5.4203742 c 0.846562,-0.1673216 1.204626,-0.2144542 1.745069,-0.2297067 0.416511,-0.011755 0.759792,0.00828 1.135894,0.066302 0.111202,0.017155 0.206178,0.027198 0.211057,0.022318 0.01159,-0.011588 -0.460566,-2.1840936 -0.478309,-2.2008253 -0.03229,-0.030449 -0.642794,-0.080433 -1.099087,-0.089984 -0.434813,-0.0091 -0.496934,-0.014302 -0.504918,-0.04226 -0.005,-0.017534 -0.08202,-0.3724386 -0.171145,-0.7886761 -0.08912,-0.4162374 -0.164434,-0.7600409 -0.167357,-0.7640078 -0.0029,-0.00397 -0.162766,-0.024969 -0.355205,-0.046671 -0.249617,-0.028151 -0.485092,-0.039777 -0.821659,-0.040569 -0.505944,-0.00119 -0.68654,0.017359 -1.126449,0.1157038 -0.2596063,0.058037 -0.8448395,0.2311694 -0.8679903,0.2567825 -0.013734,0.015195 0.033192,2.1098366 0.048425,2.1615477 0.00431,0.014633 0.1462683,-0.00594 0.4331447,-0.062779 C 10.599679,3.6165221 11.214199,3.526672 11.247754,3.563959 c 0.0093,0.010295 0.05852,0.4123499 0.109452,0.8934555 0.105863,0.9999346 0.108727,1.0221652 0.1317,1.0221652 0.0093,0 0.151798,-0.026643 0.31655,-0.059206 z M 9.6574358,4.9655384 C 10.103415,4.7867057 10.681756,4.7144152 11.043771,4.7922513 c 0.07863,0.016905 0.107584,0.00248 0.108297,-0.053967 0.0011,-0.083731 -0.632198,-0.1019685 -0.978097,-0.028169 -0.2453319,0.052343 -0.4614554,0.119446 -0.6818324,0.2116973 -0.15957,0.066798 -0.1648773,0.071066 -0.1443581,0.1161007 0.020735,0.045508 0.023193,0.045949 0.092264,0.016547 0.03903,-0.016614 0.1368556,-0.056629 0.217391,-0.088923 z M 9.6377795,4.631369 C 10.083758,4.4525363 10.662099,4.3802459 11.024114,4.458082 c 0.07863,0.016905 0.107583,0.00248 0.108297,-0.053967 0.0011,-0.083731 -0.632199,-0.1019685 -0.978096,-0.028169 -0.2453331,0.052343 -0.4614566,0.1194458 -0.6818336,0.2116973 -0.1595698,0.066797 -0.164877,0.071066 -0.1443578,0.1161006 0.020734,0.045508 0.023193,0.045949 0.092265,0.016547 0.039029,-0.016614 0.1368547,-0.056629 0.217391,-0.088923 z M 9.4902194,4.3782599 C 9.9745131,4.1804518 10.504206,4.1004138 10.898295,4.165496 c 0.07525,0.012427 0.140239,0.019061 0.144431,0.014743 0.0042,-0.00432 0.01067,-0.025464 0.0144,-0.04699 0.01119,-0.064554 -0.169342,-0.091481 -0.543613,-0.081084 -0.244212,0.00678 -0.360648,0.019697 -0.5209115,0.05777 -0.2331816,0.055396 -0.6355513,0.1970515 -0.7438473,0.2618736 -0.011926,0.00714 0.018714,0.085607 0.033427,0.085607 0.00783,0 0.1014476,-0.03562 0.2080354,-0.079155 z"
   id="path4637"
   inkscape:connector-curvature="0" /><path
   style="fill:none;fill-opacity:1;stroke:none;stroke-width:0.257507;stroke-miterlimit:4;stroke-dasharray:none;stroke-opacity:1"
   d="M 1.5670506,6.7916859 C 1.5735921,6.7673604 1.8757163,5.5886762 2.2384377,4.1723877 L 2.8979313,1.5973179 3.0003748,1.5005095 C 3.3867275,1.1354091 4.1653675,0.84464346 5.1176631,0.70985555 5.4727,0.65960363 6.4297642,0.65889936 6.7491959,0.70865495 7.0248819,0.75159657 7.3307024,0.82320224 7.532265,0.89200495 7.8775952,1.0098822 8.2641386,1.2530519 8.4210058,1.4511009 l 0.067837,0.085646 0.00534,2.5906128 c 0.00293,1.4248371 0.00227,2.5906129 -0.00147,2.5906129 -0.00374,0 -0.072487,-0.022349 -0.1527637,-0.049665 C 8.2596675,6.6409919 8.039188,6.5798212 7.8499892,6.5323725 6.3755033,6.162591 4.6413194,6.1593728 2.847277,6.5230885 2.4612383,6.6013523 1.9665395,6.7217795 1.719842,6.7975461 1.56212,6.8459863 1.552547,6.8456193 1.5670506,6.7916859 Z M 3.3976737,4.957843 C 3.8716051,4.8568744 4.1401766,4.8274873 4.6852086,4.8169606 c 0.4094149,-0.00791 0.5819185,-0.00309 0.8059379,0.022509 0.2398397,0.027407 0.6679959,0.1075002 0.756769,0.1415656 0.014618,0.00561 0.033579,-0.015582 0.046114,-0.051539 0.016102,-0.046191 0.015476,-0.063021 -0.00257,-0.069093 C 5.7804743,4.6884876 4.7706205,4.6272161 4.0168699,4.7223965 3.6336812,4.770784 3.1041778,4.8747581 3.0673304,4.9088497 c -0.00871,0.00806 -0.00979,0.038716 -0.00241,0.068134 0.011596,0.046202 0.020446,0.051679 0.064974,0.040206 0.028352,-0.0073 0.1488512,-0.034011 0.2677762,-0.059347 z m 0.058971,-0.3341693 c 0.4739315,-0.1009687 0.742503,-0.1303558 1.287535,-0.1408825 0.4094149,-0.00791 0.5819184,-0.00309 0.8059379,0.022509 0.2398396,0.027407 0.6679959,0.1075001 0.756769,0.1415655 0.014618,0.00561 0.03358,-0.015582 0.046114,-0.051538 0.016102,-0.046191 0.015476,-0.063021 -0.00257,-0.069093 C 5.8394453,4.3543182 4.8295916,4.2930467 4.075841,4.3882272 3.6926523,4.4366147 3.1631488,4.5405888 3.1263015,4.5746804 c -0.00871,0.00806 -0.00979,0.038716 -0.00241,0.068134 0.011596,0.046202 0.020446,0.051678 0.064973,0.040206 0.028352,-0.0073 0.1488512,-0.034011 0.2677762,-0.059347 z M 3.5844154,4.2845812 C 4.1075453,4.1743362 4.3390225,4.1526287 4.980064,4.153699 5.5931222,4.154719 5.8893193,4.183995 6.2575422,4.279948 6.4110608,4.319953 6.4219051,4.318027 6.4433559,4.246957 6.4550679,4.208152 6.4454659,4.200432 6.3521949,4.173649 5.7323549,3.9956664 4.8001762,3.9601283 3.9667811,4.0827079 3.6886385,4.1236183 3.2301452,4.2190113 3.2049296,4.2412168 c -0.00871,0.00767 -0.00976,0.038144 -0.00233,0.067725 0.010517,0.041903 0.022698,0.051787 0.055145,0.044745 0.022905,-0.00497 0.1699081,-0.036069 0.3266729,-0.069106 z M 3.3813588,3.7221477 c 1.057541,-0.304372 2.1847385,-0.2985283 3.1967146,0.016572 0.072171,0.022472 0.096115,0.023749 0.1022198,0.00545 0.00438,-0.013142 0.057415,-0.4869637 0.117844,-1.0529365 0.0839,-0.7857919 0.1045182,-1.0354924 0.087224,-1.0563308 C 6.8480949,1.590001 6.4369304,1.3978622 6.2611439,1.3432046 5.8873916,1.2269934 5.373455,1.2002076 4.8916073,1.2718258 4.4226853,1.3415229 3.5179933,1.5944623 3.4981938,1.661405 3.485189,1.7053744 3.1323039,3.7350284 3.1323039,3.7658574 c 0,0.030039 -0.01841,0.03327 0.2490549,-0.04371 z"
   id="path4639"
   inkscape:connector-curvature="0" /><path
   style="fill:none;fill-opacity:1;stroke:none;stroke-width:0.257507;stroke-miterlimit:4;stroke-dasharray:none;stroke-opacity:1"
   d="m 0.97003147,8.7716923 c 0,-0.011309 0.33765253,-1.4344323 0.34088883,-1.4367633 0.010694,-0.0077 0.3509869,-0.1133315 0.5240202,-0.1626589 1.2518965,-0.3568843 2.3983339,-0.5218908 3.616892,-0.5205786 0.8383881,9.031e-4 1.5136337,0.072505 2.1917579,0.2324122 0.2352036,0.055463 0.737765,0.2045717 0.7620373,0.2260948 0.03029,0.026859 -0.137134,0.1636459 -0.2902688,0.2371529 C 7.9454104,7.4289293 7.7279492,7.4957275 7.2209644,7.6220853 6.6357386,7.7679435 6.3114803,7.8770372 6.0317147,8.0221976 L 5.8744585,8.1037922 5.5501176,8.0878702 C 5.1108114,8.0663046 4.0845686,8.0857373 3.6630435,8.1236035 2.639733,8.2155288 1.8288642,8.4003797 1.1616874,8.6938286 1.0562767,8.7401921 0.97003147,8.7752308 0.97003147,8.7716923 Z"
   id="path4641"
   inkscape:connector-curvature="0" /><path
   style="fill:none;fill-opacity:1;stroke:none;stroke-width:0.257507;stroke-miterlimit:4;stroke-dasharray:none;stroke-opacity:1"
   d="M 16.36148,8.7286397 C 16.260978,8.6567872 16.005306,8.541083 15.791426,8.4706626 15.309148,8.3118713 14.705635,8.2079412 13.825724,8.1321513 13.427436,8.0978453 12.042862,8.0857089 11.534599,8.1120685 10.851491,8.147496 10.187238,8.2182816 9.8693284,8.2895266 9.7904501,8.3072036 9.7664599,8.3036414 9.6664182,8.2593985 9.1320333,8.023068 8.2798004,8.0223186 7.7475358,8.2577112 l -0.10964,0.048488 -0.272351,-0.046258 C 7.2157517,8.2344996 6.988061,8.2027255 6.8595653,8.1893324 L 6.6259369,8.1649813 6.7317947,8.128523 C 6.7900165,8.108471 7.0897539,8.0266889 7.3978777,7.946785 7.7060015,7.8668811 8.0108993,7.7830856 8.0754284,7.7605728 8.3810763,7.6539388 8.6363386,7.4804905 8.7364257,7.3114314 8.8496765,7.120137 8.8777029,7.0885861 8.9240447,7.1002173 c 0.025193,0.00632 0.1247867,-0.01423 0.2274349,-0.046935 0.5959468,-0.1898789 1.2167144,-0.309304 1.9615744,-0.377374 0.343346,-0.031377 1.363829,-0.031608 1.729818,-3.924e-4 1.112455,0.094884 2.148464,0.3009663 3.185635,0.6336837 l 0.07,0.022454 0.169554,0.719848 c 0.09326,0.3959163 0.167906,0.7213054 0.165889,0.7230867 -0.002,0.00178 -0.03463,-0.018896 -0.07247,-0.045949 z"
   id="path4643"
   inkscape:connector-curvature="0" /></svg>