<?xml version="1.0" encoding="UTF-8" standalone="no"?>
<svg
   xmlns:dc="http://purl.org/dc/elements/1.1/"
   xmlns:cc="http://creativecommons.org/ns#"
   xmlns:rdf="http://www.w3.org/1999/02/22-rdf-syntax-ns#"
   xmlns:svg="http://www.w3.org/2000/svg"
   xmlns="http://www.w3.org/2000/svg"
   xmlns:sodipodi="http://sodipodi.sourceforge.net/DTD/sodipodi-0.dtd"
   xmlns:inkscape="http://www.inkscape.org/namespaces/inkscape"
   xml:space="preserve"
   width="20.025669in"
   height="20.025669in"
   style="clip-rule:evenodd;fill-rule:evenodd;image-rendering:optimizeQuality;shape-rendering:geometricPrecision;text-rendering:geometricPrecision"
   viewBox="0 0 17.379627 17.377146"
   version="1.1"
   id="svg11"
   sodipodi:docname="icon.svg"
   inkscape:version="0.92.5 (2060ec1f9f, 2020-04-08)"><metadata
   id="metadata15"><rdf:RDF><cc:Work
       rdf:about=""><dc:format>image/svg+xml</dc:format><dc:type
         rdf:resource="http://purl.org/dc/dcmitype/StillImage" /><dc:title></dc:title></cc:Work></rdf:RDF></metadata><sodipodi:namedview
   pagecolor="#ffffff"
   bordercolor="#666666"
   borderopacity="1"
   objecttolerance="10"
   gridtolerance="10"
   guidetolerance="10"
   inkscape:pageopacity="0"
   inkscape:pageshadow="2"
   inkscape:window-width="1848"
   inkscape:window-height="1016"
   id="namedview13"
   showgrid="false"
   inkscape:zoom="0.22995065"
   inkscape:cx="684.61685"
   inkscape:cy="651.43012"
   inkscape:window-x="72"
   inkscape:window-y="27"
   inkscape:window-maximized="1"
   inkscape:current-layer="Layer_x0020_1"
   inkscape:pagecheckerboard="true"
   fit-margin-top="0"
   fit-margin-left="0"
   fit-margin-right="0"
   fit-margin-bottom="0"
   viewbox-y="0"
   viewbox-height="9.86" />
 <defs
   id="defs4"><marker
   inkscape:stockid="Arrow1Lend"
   orient="auto"
   refY="0"
   refX="0"
   id="Arrow1Lend"
   style="overflow:visible"
   inkscape:isstock="true"><path
     id="path4538"
     d="M 0,0 5,-5 -12.5,0 5,5 Z"
     style="fill:#ffffff;fill-opacity:1;fill-rule:evenodd;stroke:#ffffff;stroke-width:1.00000003pt;stroke-opacity:1"
     transform="matrix(-0.8,0,0,-0.8,-10,0)"
     inkscape:connector-curvature="0" /></marker>
  <style
   type="text/css"
   id="style2">
   <![CDATA[
    .fil0 {fill:#1F1A17}
    .fil1 {fill:#1F1A17;fill-rule:nonzero}
   ]]>
  </style>
 </defs>
 <g
   id="Layer_x0020_1"
   transform="translate(0.29851353,7.7887572)">
  <metadata
   id="CorelCorpID_0Corel-Layer" />
  <path
   id="svg_3"
   class="fil0"
   d="m 8.40487,4.9335238 c 0.317301,0.023805 0.66217,0.084456 1.04076,0.191109 2.89473,-0.535492 4.62531,-0.417079 7.01165,0.345466 l 0.319153,-0.265851 -1.74085,-6.90879 -0.353625,-0.058007 -0.136197,-0.531063 c -0.02059,-0.080756 -0.08985,-0.1361291 -0.168435,-0.1429011 -0.138681,-0.126042 -0.304799,-0.240345 -0.491941,-0.341882 -0.710261,-0.385333 -1.75229,-0.605587 -2.75418,-0.602611 -1.01432,0.00302 -1.99725,0.236033 -2.57462,0.758865 -0.037103,0.033591 -0.072566,0.068357 -0.106239,0.104168 -0.015902,-0.00432 -0.032545,-0.00668 -0.049814,-0.00668 -0.01474,0 -0.028968,0.00175 -0.042754,0.0049 -0.033208,-0.035207 -0.068111,-0.069364 -0.104609,-0.102419 -0.577371,-0.522805 -1.56026,-0.755814 -2.57457,-0.758811 -1.00186,-0.003 -2.04387,0.217251 -2.75413,0.602564 -0.187186,0.101558 -0.353229,0.21586 -0.491938,0.341902 -0.078566,0.00682 -0.147893,0.062165 -0.168483,0.142901 l -0.136197,0.531063 -0.353649,0.058007 -1.7742,7.04126 0.173762,0.191286 c 1.94914,-0.639916 3.82845,-0.868538 5.86221,-0.612746 0.417134,0.05252 0.857208,0.122263 1.32818,0.209375 0.378616,-0.106652 0.723419,-0.167304 1.04072,-0.191109 z m 7.39891,-1.25726 c -0.0049,-0.00117 -0.0098,-0.00251 -0.01467,-0.0041 l -0.0034,-0.00112 c -0.313924,-0.1027 -0.627279,-0.193617 -0.938854,-0.272692 -0.03666,-0.0093 -0.0734,-0.018516 -0.110011,-0.027502 -0.349747,-0.085721 -0.700472,-0.157491 -1.05005,-0.215006 -1.56189,-0.256961 -3.08758,-0.225731 -4.4050697,0.11503 -0.190203,0.049212 -0.376129,0.104797 -0.557127,0.166969 -0.049677,0.017026 -0.101513,0.012451 -0.145364,-0.00872 -0.02716,0.072276 -0.096952,0.12375 -0.178733,0.12375 -0.077637,0 -0.148539,-0.048047 -0.177318,-0.120364 -0.037838,0.016319 -0.080978,0.020627 -0.123295,0.00977 -0.18463,-0.047702 -0.36556,-0.117555 -0.551161,-0.16607 -1.32216,-0.345801 -2.85567,-0.378664 -4.42572,-0.120364 -0.349577,0.057515 -0.700301,0.129285 -1.05005,0.215006 -0.123066,0.030157 -0.246406,0.062145 -0.370033,0.096029 -0.225656,0.061878 -0.452139,0.129989 -0.67882,0.204171 l -0.00343,0.00112 c -0.00487,0.00159 -0.00972,0.00292 -0.014638,0.0041 l -0.34595098,1.46432 C 2.3555818,4.2894313 4.9749318,4.3632133 6.5610218,4.5405323 c 0.308165,0.034445 0.573135,0.076277 0.775061,0.123046 0.030232,-0.016975 0.066047,-0.034397 0.108535,-0.052257 0.274079,-0.115153 0.593396,-0.18777 0.960272,-0.176758 0.366876,-0.011012 0.6862,0.061605 0.960279,0.176758 0.042508,0.01786 0.078296,0.035282 0.108525,0.052284 1.3535602,-0.313601 5.5296402,-0.407488 6.6760102,0.476979 l -0.345917,-1.46432 z M 8.59137,3.0789108 c 0.00295,-0.00117 0.00594,-0.00231 0.00899,-0.00337 1.49417,-0.513156 3.29911,-0.601101 5.14783,-0.296951 0.357688,0.058854 0.717887,0.132613 1.0785,0.220995 0.246194,0.060341 0.491165,0.127115 0.73409,0.200054 l -1.35044,-5.26508 c -0.03644,-0.039539 -0.07691,-0.078177 -0.120849,-0.115836 -0.108432,-0.092937 -0.238763,-0.180028 -0.386751,-0.2603189 -0.657424,-0.35667 -1.63052,-0.560492 -2.57153,-0.557694 -0.928537,0.00275 -1.81664,0.205483 -2.31864,0.6600579 -0.07162,0.064844 -0.135473,0.135569 -0.190162,0.212112 0.00895,0.049984 -0.00255,0.101431 -0.031011,0.142675 l -2.05e-5,5.06335 z m -0.381739,-0.00329 -2.187e-4,-7.51e-5 c -1.49417,-0.513156 -3.29908,-0.601128 -5.1478,-0.296951 -0.357688,0.058854 -0.717887,0.132613 -1.0785,0.220995 -0.246215,0.060341 -0.491063,0.12704 -0.734042,0.199979 l 1.35035,-5.26488 c 0.036659,-0.039833 0.077199,-0.078761 0.121457,-0.116663 0.108313,-0.092695 0.238541,-0.179515 0.386246,-0.259643 0.657396,-0.356643 1.63049,-0.560465 2.57147,-0.557639 0.928516,0.00273 1.81656,0.205435 2.31859,0.66001 0.071664,0.064892 0.135445,0.135589 0.190135,0.212201 -0.00794,0.044511 2.939e-4,0.090084 0.022339,0.128673 l -2.73e-5,5.07399 z"
   inkscape:connector-curvature="0"
   style="opacity:1;fill:#000000;fill-opacity:1;stroke:#000000;stroke-width:0.54241717;stroke-miterlimit:4;stroke-dasharray:none;stroke-opacity:1" />
  <path
   class="fil1"
   d="m 8.18779,3.2420638 -0.0048,-0.175033 0.350065,-0.0096 0.0048,0.175033 c 0.019978,0.699423 -0.659252,0.866296 -1.44844,1.06013 -0.831383,0.204168 -1.80581,0.443535 -1.97342,1.43149 L 5.087178,5.8970698 4.741206,5.8394318 4.770023,5.6664458 c 0.206262,-1.21585 1.30131,-1.48486 2.23564,-1.71432 0.641713,-0.157614 1.19405,-0.293329 1.18214,-0.71007 z"
   id="path8"
   inkscape:connector-curvature="0"
   style="fill:#ffffff;fill-opacity:1;fill-rule:nonzero;stroke:#000000;stroke-width:0.54241717;stroke-linecap:round;stroke-miterlimit:4;stroke-dasharray:none;stroke-opacity:1" />
 <rect
   id="rect19"
   width="17.337494"
   height="4.2066026"
   x="-0.2591995"
   y="-7.7478561"
   style="stroke-width:0.00904029;opacity:0;" /><rect
   style="opacity:0;stroke-width:0.00904029"
   id="rect4596"
   width="17.337492"
   height="3.3416941"
   x="-0.2591995"
   y="6.2086291" /></g>
<path
   style="fill:none;fill-opacity:1;stroke:none;stroke-width:0.257507;stroke-miterlimit:4;stroke-dasharray:none;stroke-opacity:1"
   d="m 15.742283,10.950775 c -0.169126,-0.05245 -0.666626,-0.179802 -0.943537,-0.24153 -1.999041,-0.445628 -4.031093,-0.423733 -5.6103152,0.06045 -0.125301,0.03842 -0.2433659,0.07426 -0.2623665,0.07966 -0.032854,0.0093 -0.034229,-0.114796 -0.028062,-2.5331932 0.00357,-1.39865 0.01351,-2.5719399 0.022097,-2.6073109 0.00859,-0.03537 0.053905,-0.106903 0.1007066,-0.158958 0.311559,-0.346528 0.8779351,-0.5901919 1.6389901,-0.7051189 0.323321,-0.04883 1.285925,-0.04839 1.622851,7.37e-4 0.985395,0.143672 1.746668,0.4286219 2.133447,0.7985629 l 0.09386,0.08977 0.663357,2.5947259 c 0.364846,1.4271 0.667392,2.6057862 0.672326,2.6193002 0.01028,0.02817 -0.01921,0.029 -0.103352,0.0029 z M 11.805456,9.5568998 c 0.846562,-0.167322 1.204626,-0.214454 1.745069,-0.229707 0.416511,-0.01175 0.759792,0.0083 1.135894,0.0663 0.111202,0.01716 0.206178,0.0272 0.211057,0.02232 0.01159,-0.01159 -0.460566,-2.184092 -0.478309,-2.200824 -0.03229,-0.03045 -0.642794,-0.08043 -1.099087,-0.08998 -0.434813,-0.0091 -0.496934,-0.0143 -0.504918,-0.04226 -0.005,-0.01753 -0.08202,-0.372439 -0.171145,-0.7886759 -0.08912,-0.416238 -0.164434,-0.760041 -0.167357,-0.764008 -0.0029,-0.004 -0.162766,-0.02497 -0.355205,-0.04667 -0.249617,-0.02815 -0.485092,-0.03978 -0.821659,-0.04057 -0.505944,-0.0012 -0.68654,0.01736 -1.126449,0.115704 -0.2596063,0.05804 -0.8448395,0.231169 -0.8679903,0.256782 -0.013734,0.0152 0.033192,2.1098369 0.048425,2.1615479 0.00431,0.01463 0.1462683,-0.0059 0.4331447,-0.06278 0.8127526,-0.161027 1.4272726,-0.250877 1.4608276,-0.21359 0.0093,0.01029 0.05852,0.41235 0.109452,0.893454 0.105863,0.999935 0.108727,1.022166 0.1317,1.022166 0.0093,0 0.151798,-0.02664 0.31655,-0.05921 z M 9.6574358,9.1020638 c 0.4459792,-0.178832 1.0243202,-0.251123 1.3863352,-0.173287 0.07863,0.0169 0.107584,0.0025 0.108297,-0.05397 0.0011,-0.08373 -0.632198,-0.101968 -0.978097,-0.02817 -0.2453319,0.05234 -0.4614554,0.119446 -0.6818324,0.211697 -0.15957,0.0668 -0.1648773,0.07107 -0.1443581,0.116101 0.020735,0.04551 0.023193,0.04595 0.092264,0.01655 0.03903,-0.01661 0.1368556,-0.05663 0.217391,-0.08892 z m -0.019656,-0.334169 c 0.4459782,-0.178833 1.0243192,-0.251123 1.3863342,-0.173287 0.07863,0.0169 0.107583,0.0025 0.108297,-0.05397 0.0011,-0.08373 -0.632199,-0.101969 -0.978096,-0.02817 -0.2453328,0.05234 -0.4614563,0.119446 -0.6818333,0.211697 -0.1595698,0.0668 -0.164877,0.07107 -0.1443578,0.116101 0.020734,0.04551 0.023193,0.04595 0.092265,0.01655 0.039029,-0.01661 0.1368547,-0.05663 0.217391,-0.08892 z M 9.4902194,8.5147858 c 0.4842937,-0.197808 1.0139866,-0.277845 1.4080756,-0.212764 0.07525,0.01243 0.140239,0.01906 0.144431,0.01474 0.0042,-0.0043 0.01067,-0.02546 0.0144,-0.04699 0.01119,-0.06455 -0.169342,-0.09148 -0.543613,-0.08108 -0.244212,0.0068 -0.360648,0.0197 -0.5209115,0.05777 -0.2331816,0.0554 -0.6355513,0.197051 -0.7438473,0.261873 -0.011926,0.0071 0.018714,0.08561 0.033427,0.08561 0.00783,0 0.1014476,-0.03562 0.2080354,-0.07916 z"
   id="path4637"
   inkscape:connector-curvature="0" /><path
   style="fill:none;fill-opacity:1;stroke:none;stroke-width:0.257507;stroke-miterlimit:4;stroke-dasharray:none;stroke-opacity:1"
   d="m 1.5670506,10.928214 c 0.00654,-0.02433 0.3086657,-1.2030122 0.6713871,-2.6193002 L 2.8979313,5.7338439 3.0003748,5.6370339 C 3.3867275,5.2719339 4.1653675,4.981168 5.1176631,4.84638 5.4727,4.79613 6.4297642,4.79542 6.7491959,4.84518 7.0248819,4.88812 7.3307024,4.959727 7.532265,5.02853 7.8775952,5.1464069 8.2641386,5.3895759 8.4210058,5.5876249 l 0.067837,0.08565 0.00534,2.5906139 c 0.00293,1.424836 0.00227,2.5906132 -0.00147,2.5906132 -0.00374,0 -0.072487,-0.02235 -0.1527637,-0.04966 -0.080282,-0.02731 -0.3007611,-0.08849 -0.4899599,-0.135937 -1.4744859,-0.369783 -3.2086698,-0.373001 -5.0027122,-0.0093 -0.3860387,0.07826 -0.8807375,0.198691 -1.127435,0.274458 -0.157722,0.04844 -0.167295,0.04807 -0.1527914,-0.0059 z M 3.3976737,9.0943688 c 0.4739314,-0.100969 0.7425029,-0.130356 1.2875349,-0.140883 0.4094149,-0.0079 0.5819185,-0.0031 0.8059379,0.02251 0.2398397,0.02741 0.6679959,0.107501 0.756769,0.141566 0.014618,0.0056 0.033579,-0.01558 0.046114,-0.05154 0.016102,-0.04619 0.015476,-0.06302 -0.00257,-0.06909 -0.5109852,-0.171916 -1.520839,-0.233187 -2.2745896,-0.138007 -0.3831887,0.04839 -0.9126921,0.152362 -0.9495395,0.186454 -0.00871,0.0081 -0.00979,0.03872 -0.00241,0.06813 0.011596,0.0462 0.020446,0.05168 0.064974,0.04021 0.028352,-0.0073 0.1488512,-0.03401 0.2677762,-0.05935 z m 0.058971,-0.334169 c 0.4739315,-0.100969 0.742503,-0.130356 1.287535,-0.140883 0.4094149,-0.0079 0.5819184,-0.0031 0.8059379,0.02251 0.2398396,0.02741 0.6679959,0.1075 0.756769,0.141566 0.014618,0.0056 0.03358,-0.01558 0.046114,-0.05154 0.016102,-0.04619 0.015476,-0.06302 -0.00257,-0.06909 -0.5109853,-0.171917 -1.520839,-0.233188 -2.2745896,-0.138008 -0.3831887,0.04839 -0.9126922,0.152362 -0.9495395,0.186453 -0.00871,0.0081 -0.00979,0.03872 -0.00241,0.06813 0.011596,0.0462 0.020446,0.05168 0.064973,0.04021 0.028352,-0.0073 0.1488512,-0.03401 0.2677762,-0.05935 z m 0.1277707,-0.339093 c 0.5231299,-0.110245 0.7546071,-0.131952 1.3956486,-0.130882 0.6130582,10e-4 0.9092553,0.0303 1.2774782,0.126249 0.1535186,0.04 0.1643629,0.03808 0.1858137,-0.03299 0.011712,-0.0388 0.00211,-0.04652 -0.091161,-0.07331 -0.61984,-0.177982 -1.5520187,-0.21352 -2.3854138,-0.09094 -0.2781426,0.04091 -0.7366359,0.136303 -0.7618515,0.158509 -0.00871,0.0077 -0.00976,0.03814 -0.00233,0.06772 0.010517,0.0419 0.022698,0.05179 0.055145,0.04475 0.022905,-0.005 0.1699081,-0.03607 0.3266729,-0.06911 z M 3.3813588,7.8586748 c 1.057541,-0.304372 2.1847385,-0.298529 3.1967146,0.01657 0.072171,0.02247 0.096115,0.02375 0.1022198,0.0054 0.00438,-0.01314 0.057415,-0.486964 0.117844,-1.052937 0.0839,-0.7857919 0.1045182,-1.0354929 0.087224,-1.0563309 -0.037266,-0.04485 -0.4484308,-0.236988 -0.6242173,-0.291646 -0.3737523,-0.116211 -0.8876889,-0.142997 -1.3695366,-0.07138 -0.468922,0.0697 -1.373614,0.322637 -1.3934135,0.38958 -0.013005,0.04397 -0.3658899,2.0736229 -0.3658899,2.1044519 0,0.03004 -0.01841,0.03327 0.2490549,-0.04371 z"
   id="path4639"
   inkscape:connector-curvature="0" /><path
   style="fill:none;fill-opacity:1;stroke:none;stroke-width:0.257507;stroke-miterlimit:4;stroke-dasharray:none;stroke-opacity:1"
   d="m 0.97003147,12.90822 c 0,-0.01131 0.33765253,-1.434432 0.34088883,-1.436763 0.010694,-0.0077 0.3509869,-0.113332 0.5240202,-0.162659 1.2518965,-0.356884 2.3983339,-0.521891 3.616892,-0.520579 0.8383881,9.03e-4 1.5136337,0.07251 2.1917579,0.232413 0.2352036,0.05546 0.737765,0.204571 0.7620373,0.226094 0.03029,0.02686 -0.137134,0.163646 -0.2902688,0.237153 -0.1699485,0.08158 -0.3874097,0.148376 -0.8943945,0.274734 -0.5852258,0.145858 -0.9094841,0.254952 -1.1892497,0.400112 l -0.1572562,0.0816 -0.3243409,-0.01592 c -0.4393062,-0.02157 -1.465549,-0.0021 -1.8870741,0.03573 -1.0233105,0.09193 -1.8341793,0.276777 -2.5013561,0.570225 -0.1054107,0.04636 -0.19165593,0.0814 -0.19165593,0.07786 z"
   id="path4641"
   inkscape:connector-curvature="0" /><path
   style="fill:none;fill-opacity:1;stroke:none;stroke-width:0.257507;stroke-miterlimit:4;stroke-dasharray:none;stroke-opacity:1"
   d="m 16.36148,12.865168 c -0.100502,-0.07185 -0.356174,-0.187557 -0.570054,-0.257978 -0.482278,-0.158791 -1.085791,-0.262721 -1.965702,-0.338511 -0.398288,-0.03431 -1.782862,-0.04644 -2.291125,-0.02008 -0.683108,0.03543 -1.347361,0.106213 -1.6652706,0.177458 -0.078878,0.01768 -0.1028685,0.01412 -0.2029102,-0.03013 -0.5343849,-0.23633 -1.3866178,-0.23708 -1.9188824,-0.0017 l -0.10964,0.04849 -0.272351,-0.04626 c -0.1497931,-0.02543 -0.3774838,-0.0572 -0.5059795,-0.0706 l -0.2336284,-0.02435 0.1058578,-0.03646 c 0.058222,-0.02005 0.3579592,-0.101834 0.666083,-0.181738 0.3081238,-0.0799 0.6130216,-0.1637 0.6775507,-0.186212 0.3056479,-0.106634 0.5609102,-0.280083 0.6609973,-0.449142 0.1132508,-0.191294 0.1412772,-0.222845 0.187619,-0.211214 0.025193,0.0063 0.1247867,-0.01423 0.2274349,-0.04694 0.5959468,-0.189879 1.2167144,-0.309304 1.9615744,-0.377374 0.343346,-0.03138 1.363829,-0.03161 1.729818,-3.92e-4 1.112455,0.09488 2.148464,0.300966 3.185635,0.633683 l 0.07,0.02245 0.169554,0.719848 c 0.09326,0.395917 0.167906,0.721306 0.165889,0.723087 -0.002,0.0018 -0.03463,-0.0189 -0.07247,-0.04595 z"
   id="path4643"
   inkscape:connector-curvature="0" /></svg>